<?xml version="1.0" encoding="UTF-8" standalone="no"?>
<!-- Generator: Adobe Illustrator 14.0.0, SVG Export Plug-In  -->

<svg
   xmlns:dc="http://purl.org/dc/elements/1.1/"
   xmlns:cc="http://creativecommons.org/ns#"
   xmlns:rdf="http://www.w3.org/1999/02/22-rdf-syntax-ns#"
   xmlns:svg="http://www.w3.org/2000/svg"
   xmlns="http://www.w3.org/2000/svg"
   xmlns:sodipodi="http://sodipodi.sourceforge.net/DTD/sodipodi-0.dtd"
   xmlns:inkscape="http://www.inkscape.org/namespaces/inkscape"
   version="1.1"
   x="0px"
   y="0px"
   width="99.788139"
   height="23.790659"
   viewBox="-7.65 -13.389 99.788152 23.790659"
   enable-background="new -7.65 -13.389 162 176"
   xml:space="preserve"
   id="svg3071"
   inkscape:version="0.48.3.1 r9886"
   sodipodi:docname="workflow_overview.svg"
   inkscape:export-filename="/home/rob/Downloads/workflow_overview.png"
   inkscape:export-xdpi="540.96863"
   inkscape:export-ydpi="540.96863"><sodipodi:namedview
   pagecolor="#ffffff"
   bordercolor="#666666"
   borderopacity="1"
   objecttolerance="10"
   gridtolerance="10"
   guidetolerance="10"
   inkscape:pageopacity="0"
   inkscape:pageshadow="2"
   inkscape:window-width="1059"
   inkscape:window-height="616"
   id="namedview3115"
   showgrid="false"
   inkscape:zoom="6.4878809"
   inkscape:cx="49.260643"
   inkscape:cy="1.1463264"
   inkscape:window-x="621"
   inkscape:window-y="271"
   inkscape:window-maximized="0"
   inkscape:current-layer="svg3071"
   fit-margin-top="2"
   fit-margin-left="2"
   fit-margin-right="2"
   fit-margin-bottom="2" /><metadata
   id="metadata3117"><rdf:RDF><cc:Work
       rdf:about=""><dc:format>image/svg+xml</dc:format><dc:type
         rdf:resource="http://purl.org/dc/dcmitype/StillImage" /><dc:title></dc:title></cc:Work></rdf:RDF></metadata>
<defs
   id="defs3073"><marker
   style="overflow:visible"
   id="Arrow2Mend"
   refX="0"
   refY="0"
   orient="auto"
   inkscape:stockid="Arrow2Mend"><path
     transform="scale(-0.6,-0.6)"
     d="M 8.7185878,4.0337352 -2.2072895,0.01601326 8.7185884,-4.0017078 c -1.7454984,2.3720609 -1.7354408,5.6174519 -6e-7,8.035443 z"
     style="fill-rule:evenodd;stroke-width:0.625;stroke-linejoin:round"
     id="path4471"
     inkscape:connector-curvature="0" /></marker><marker
   style="overflow:visible"
   id="Arrow1Mend"
   refX="0"
   refY="0"
   orient="auto"
   inkscape:stockid="Arrow1Mend"><path
     transform="matrix(-0.4,0,0,-0.4,-4,0)"
     style="fill-rule:evenodd;stroke:#000000;stroke-width:1pt"
     d="M 0,0 5,-5 -12.5,0 5,5 0,0 z"
     id="path4453"
     inkscape:connector-curvature="0" /></marker><marker
   style="overflow:visible"
   id="Arrow1Lend"
   refX="0"
   refY="0"
   orient="auto"
   inkscape:stockid="Arrow1Lend"><path
     transform="matrix(-0.8,0,0,-0.8,-10,0)"
     style="fill-rule:evenodd;stroke:#000000;stroke-width:1pt"
     d="M 0,0 5,-5 -12.5,0 5,5 0,0 z"
     id="path4447"
     inkscape:connector-curvature="0" /></marker><marker
   style="overflow:visible"
   id="Arrow1Lstart"
   refX="0"
   refY="0"
   orient="auto"
   inkscape:stockid="Arrow1Lstart"><path
     transform="matrix(0.8,0,0,0.8,10,0)"
     style="fill-rule:evenodd;stroke:#000000;stroke-width:1pt"
     d="M 0,0 5,-5 -12.5,0 5,5 0,0 z"
     id="path4444"
     inkscape:connector-curvature="0" /></marker>
<clipPath
   clipPathUnits="userSpaceOnUse"
   id="clipPath4327"><path
     d="M 0,31 88,31 88,0 0,0 0,31 z"
     id="path4329"
     inkscape:connector-curvature="0" /></clipPath><marker
   style="overflow:visible"
   id="Arrow2Mend7"
   refX="0"
   refY="0"
   orient="auto"
   inkscape:stockid="Arrow2Mend7"><path
     transform="scale(-0.6,-0.6)"
     d="M 8.7185878,4.0337352 -2.2072895,0.01601326 8.7185884,-4.0017078 c -1.7454984,2.3720609 -1.7354408,5.6174519 -6e-7,8.035443 z"
     style="fill:#002b36;fill-rule:evenodd;stroke:#002b36;stroke-width:0.625;stroke-linejoin:round"
     id="path5833"
     inkscape:connector-curvature="0" /></marker></defs>




















<g
   transform="translate(10.277714,-27.572725)"
   id="g4253"><rect
     y="16.541241"
     x="60.937714"
     style="fill:#002b36"
     width="19.433144"
     height="19.433144"
     id="rect3205" /><g
     id="g3207"
     transform="matrix(0.04858286,0,0,0.04858286,60.937712,16.54124)"><polygon
       style="fill:#efe8d5"
       points="293.977,233.385 293.977,149.134 268.472,207.895 267.891,207.928 241.018,148.957 241.018,237.75 210.301,240.279 210.301,79.871 243.202,82.541 268.398,143.014 292.313,86.525 320,88.773 320,231.242 "
       id="polygon3209" /></g><polygon
     style="fill:#efe8d5"
     points="320,55.062 199,38.844 199,56.691 320,69.081 "
     id="polygon3211"
     transform="matrix(0.04858286,0,0,0.04858286,60.937712,16.54124)" /><polygon
     style="fill:#efe8d5"
     points="320,251.929 199,264.319 199,282.168 320,265.948 "
     id="polygon3213"
     transform="matrix(0.04858286,0,0,0.04858286,60.937712,16.54124)" /><g
     id="g3215"
     transform="matrix(0.04858286,0,0,0.04858286,60.937712,16.54124)"><polygon
       style="fill:#c6bda8"
       points="106.22,233.385 106.22,149.134 131.725,207.895 132.306,207.928 159.179,148.957 159.179,237.75 189.896,240.279 189.896,79.871 156.994,82.541 131.796,143.014 107.882,86.525 80.196,88.773 80.196,231.242 "
       id="polygon3217" /></g><polygon
     style="fill:#c6bda8"
     points="78,55.062 199,38.844 199,56.691 78,69.081 "
     id="polygon3219"
     transform="matrix(0.04858286,0,0,0.04858286,60.937712,16.54124)" /><polygon
     style="fill:#c6bda8"
     points="78,251.929 199,264.319 199,282.168 78,265.948 "
     id="polygon3221"
     transform="matrix(0.04858286,0,0,0.04858286,60.937712,16.54124)" /><g
     id="g3223"
     transform="matrix(0.04858286,0,0,0.04858286,60.937712,16.54124)"><path
       inkscape:connector-curvature="0"
       style="fill:#c6bda8"
       d="m 47.394,319.152 h 9.841 l 8.017,13.01 8.017,-13.01 h 9.841 v 33.604 h -9.265 v -19.298 l -8.593,13.153 H 65.06 l -8.544,-13.057 v 19.201 h -9.121 v -33.603 z"
       id="path3225" /><path
       inkscape:connector-curvature="0"
       style="fill:#c6bda8"
       d="m 89.25,319.152 h 9.361 v 33.604 H 89.25 v -33.604 z"
       id="path3227" /><path
       inkscape:connector-curvature="0"
       style="fill:#c6bda8"
       d="m 104.753,319.152 h 12.961 c 12.001,0 18.961,6.913 18.961,16.609 v 0.097 c 0,9.696 -7.057,16.897 -19.154,16.897 h -12.769 v -33.603 z m 13.106,25.347 c 5.568,0 9.265,-3.072 9.265,-8.497 v -0.096 c 0,-5.377 -3.696,-8.496 -9.265,-8.496 h -3.792 v 17.089 h 3.792 z"
       id="path3229" /><path
       inkscape:connector-curvature="0"
       style="fill:#c6bda8"
       d="m 141.473,319.152 h 12.961 c 12.001,0 18.961,6.913 18.961,16.609 v 0.097 c 0,9.696 -7.057,16.897 -19.154,16.897 h -12.769 v -33.603 z m 13.106,25.347 c 5.568,0 9.265,-3.072 9.265,-8.497 v -0.096 c 0,-5.377 -3.696,-8.496 -9.265,-8.496 h -3.792 v 17.089 h 3.792 z"
       id="path3231" /><path
       inkscape:connector-curvature="0"
       style="fill:#c6bda8"
       d="m 178.193,319.152 h 9.313 v 25.443 h 16.273 v 8.16 h -25.586 v -33.603 z"
       id="path3233" /><path
       inkscape:connector-curvature="0"
       style="fill:#c6bda8"
       d="m 207.762,319.152 h 27.026 v 7.922 h -17.81 v 5.088 h 16.129 v 7.345 h -16.129 v 5.328 h 18.049 v 7.921 h -27.266 v -33.604 z"
       id="path3235" /></g><g
     id="g3237"
     transform="matrix(0.04858286,0,0,0.04858286,60.937712,16.54124)"><path
       inkscape:connector-curvature="0"
       style="fill:#efe8d5"
       d="m 241.055,319.152 h 9.842 l 8.017,13.01 8.017,-13.01 h 9.841 v 33.604 h -9.265 v -19.298 l -8.593,13.153 h -0.192 l -8.545,-13.057 v 19.201 h -9.121 v -33.603 z"
       id="path3239" /><path
       inkscape:connector-curvature="0"
       style="fill:#efe8d5"
       d="m 294.336,318.913 h 8.977 l 14.306,33.843 h -9.985 l -2.447,-6 h -12.962 l -2.399,6 h -9.793 l 14.303,-33.843 z m 8.16,20.594 -3.744,-9.553 -3.792,9.553 h 7.536 z"
       id="path3241" /><path
       inkscape:connector-curvature="0"
       style="fill:#efe8d5"
       d="m 320.879,319.152 h 8.689 l 13.824,17.762 v -17.762 h 9.217 v 33.604 h -8.16 l -14.354,-18.434 v 18.434 h -9.217 v -33.604 z"
       id="path3243" /></g></g><g
   transform="translate(-29.626784,-27.527786)"
   id="g4249"><rect
   id="rect3479"
   height="19.433144"
   width="19.433144"
   style="fill:#002b36"
   x="23.976784"
   y="16.496302" /><path
   d="m 39.230829,22.94241 c -0.01626,-0.24985 -0.225419,-0.346299 -0.475348,-0.168549 -0.572591,-0.102874 -1.134633,-0.05449 -1.411847,-0.07781 -0.607728,-0.08511 -1.113692,-0.40674 -1.113692,-0.40674 0.07392,-0.09827 0.03855,-0.310685 -0.436086,-0.325281 -0.130557,-0.04299 -0.264602,-0.105252 -0.391272,-0.156967 0.04315,-0.09082 -0.01055,-0.224944 -0.01055,-0.224944 0.193137,-0.05331 0.222722,-0.304735 0.146578,-0.452823 0.246359,0.0067 0.207176,-0.374218 0.173149,-0.506121 0.193138,-0.07321 0.219788,-0.303866 0.139836,-0.486136 0.233034,-0.05322 0.239697,-0.326311 0.219789,-0.519369 0.239696,-0.01332 0.206462,-0.432835 0.206462,-0.519447 0.206542,-0.133174 0.159903,-0.312988 0.192344,-0.521353 0.127304,-0.25778 -0.04577,-0.33099 -0.167835,-0.05631 -0.130953,0.23803 -0.298947,0.341934 -0.297439,0.517782 0.05988,0.09986 -0.446159,0.246358 -0.286335,0.559343 -0.113266,0.139837 -0.379533,0.319648 -0.284907,0.534044 -0.04807,0.105175 -0.387703,0.351613 -0.241205,0.584645 -0.319569,0.213127 -0.300532,0.264524 -0.233034,0.459486 -0.09098,0.05837 -0.183856,0.14769 -0.237554,0.245408 -0.10462,-0.124369 -0.206463,-0.351295 -0.204956,-0.657858 0,-0.259764 -0.483756,0.02522 -0.483756,0.538089 0,0.0441 -0.0045,0.08416 -0.01071,0.122308 -0.16736,0.01927 -0.376836,0.05608 -0.640883,0.118497 -0.0084,0.0058 -0.01245,0.01476 -0.01444,0.02506 -0.01039,-0.03847 -0.01832,-0.0794 -0.02197,-0.123178 -0.04616,-0.300612 -0.391351,-0.758272 -0.559742,-0.193058 -0.08693,0.207096 -0.138011,0.348362 -0.167755,0.459166 v 0 c 0,0 -0.02665,0.01792 -0.0759,0.04838 -0.207731,0.128653 -0.282528,0.530317 -1.037072,0.783894 -0.254687,0.08558 -0.586947,0.15427 -1.027871,0.189963 -0.759066,0.06131 -2.211998,1.373299 -2.309321,2.625162 -0.02245,0.314412 0.02459,1.089579 0.285226,1.769566 1.58e-4,5.54e-4 2.37e-4,0.0011 3.87e-4,0.0017 0.0012,0.0033 0.0025,0.0064 0.0038,0.0097 0.0041,0.01063 0.0082,0.02118 0.01237,0.03157 0.02221,0.05695 0.04593,0.111442 0.07099,0.163553 0.149513,0.31949 0.353754,0.602017 0.629302,0.783814 0.139916,0.10914 0.265079,0.179096 0.346776,0.219072 0.468526,0.773262 1.462767,1.764966 3.33727,1.178573 2.875644,-0.815698 4.462623,1.095292 4.645449,1.229419 0.2696,0.272295 -0.696881,-2.366429 -2.743343,-3.552459 -1.209826,-0.66008 -0.450364,-1.797012 -0.36367,-2.198515 0,0 0.969812,0.678718 1.672562,-0.358514 0.634855,0.163552 1.060232,-0.115961 1.606253,0.0817 0.331783,0.145388 1.726736,0.05758 1.208318,-0.722104 0.325994,-0.212809 0.360418,-0.143961 0.523494,-0.467971 0.08757,-0.392779 -0.111283,-0.476856 -0.171881,-0.584252 z m -5.575444,-1.05484 c -0.0032,0.0014 -0.0068,0.0032 -0.0099,0.0044 0.0031,-0.0028 0.0059,-0.0049 0.0091,-0.0081 2.38e-4,0.0011 5.53e-4,0.0025 7.89e-4,0.0036 z m -1.063881,0.358753 c -0.0058,0.03402 -0.01134,0.06575 -0.01682,0.09645 0.0029,-0.06599 0.0067,-0.135949 0.01134,-0.209873 0.0019,0.03451 0.0039,0.07171 0.0054,0.113424 z m 0.848138,-0.502317 c 0.05917,0.08915 0.131825,0.172833 0.131825,0.172833 0,0 -0.0694,-0.06266 -0.131825,-0.172833 z"
   id="path3075"
   style="fill:#c6bda8;stroke:none"
   inkscape:connector-curvature="0" /><text
   xml:space="preserve"
   style="font-size:7.67543602px;font-style:normal;font-variant:normal;font-weight:normal;font-stretch:normal;line-height:125%;letter-spacing:0px;word-spacing:0px;fill:#c6bda8;fill-opacity:1;stroke:none;font-family:DejaVu Sans;-inkscape-font-specification:DejaVu Sans"
   x="26.382505"
   y="34.033424"
   id="text3040"
   sodipodi:linespacing="125%"><tspan
     sodipodi:role="line"
     id="tspan3042"
     x="26.382505"
     y="34.033424"
     style="font-size:3.83771801px;font-style:normal;font-variant:normal;font-weight:normal;font-stretch:normal;fill:#c6bda8;font-family:NanumMyeongjo;-inkscape-font-specification:NanumMyeongjo">orgmode</tspan></text>

</g><g
   id="g3029"
   transform="translate(-57.343553,-27.215208)"><rect
     id="rect3205-6"
     height="19.433144"
     width="19.433144"
     style="fill:#002b36"
     x="90.126266"
     y="16.183723" /><g
     clip-path="url(#clipPath4327)"
     id="g4325"
     transform="matrix(0.38898487,0,0,-0.38898487,95.269582,29.323597)"><g
       transform="translate(21.2959,25.7754)"
       id="g4335"><path
         id="path4337"
         style="fill:#efe8d5;fill-opacity:1;fill-rule:evenodd;stroke:none"
         d="m 0,0 c 0,0.968 -0.785,1.754 -1.754,1.754 l -15.57,0 c -0.967,0 -1.754,-0.786 -1.754,-1.754 l 0,-20.551 c 0,-0.969 0.787,-1.754 1.754,-1.754 l 15.57,0 c 0.969,0 1.754,0.785 1.754,1.754 L 0,0 z m -1.613,-23.146 -15.852,0 c -1.355,0 -2.455,1.1 -2.455,2.456 l 0,20.83 c 0,1.356 1.1,2.455 2.455,2.455 l 15.852,0 c 1.357,0 2.455,-1.099 2.455,-2.455 l 0,-20.83 c 0,-1.356 -1.098,-2.456 -2.455,-2.456"
         inkscape:connector-curvature="0" /></g><g
       transform="translate(6.2334,6.1899)"
       id="g4339"><path
         id="path4341"
         style="fill:#efe8d5;fill-opacity:1;fill-rule:nonzero;stroke:none"
         d="M 0,0 0,5.821 2.91,2.911 0,0 z m 9.801,14.991 -3.069,0 c 1.108,1.35 2.106,3.665 2.106,3.665 l 3.174,0 c 0,0 -0.543,-1.509 -2.211,-3.665 m -1.647,-15.009 0,10.223 c 0,0 0.664,2.445 -8.191,-1.002 -0.016,-0.043 -0.016,9.453 -0.016,9.453 l 2.893,0.017 0,-6.084 c 0,0 8.103,3.191 8.103,-2.42 l 0,-10.187 -2.789,0 z"
         inkscape:connector-curvature="0" /></g><path
       style="fill:#000000;stroke:#000000;stroke-width:0;stroke-linecap:butt;stroke-linejoin:miter;stroke-miterlimit:4;stroke-opacity:1;stroke-dasharray:none;marker-end:url(#Arrow1Lend)"
       d="m 47.107062,59.936219 13.029612,0"
       id="path4438"
       inkscape:connector-curvature="0"
       transform="matrix(2.5707941,0,0,-2.5707941,-264.58505,109.80529)" /></g><g
     transform="matrix(0.18140395,0,0,-0.18140395,104.14139,33.199025)"
     id="g4331"><path
       id="path4333"
       style="fill:#efe8d5;fill-opacity:1;fill-rule:nonzero;stroke:none"
       d="m 8.5812292,-2.7654691 c -2.8141777,0 -3.8739213,1.7312777 -3.8739213,4.1082091 l 0,10.597436 3.072984,0 0,-10.9842833 c 0,-0.77641883 0.5693738,-1.11150486 1.2368216,-1.11150486 1.3498795,0 3.1819555,0.33508603 4.7061875,1.00798235 l 0,11.08780581 3.105676,0 0,-12.45811694 C 13.156652,-2.5339056 10.33975,-2.7654691 8.5812292,-2.7654691 m -5.8136063,0.3609666 -3.64371993,0 C -1.7274335,-0.13109367 -2.9165802,2.1968007 -4.7527426,4.2127654 l -1.6277553,0 0,-6.6172679 -3.1029511,0 0,20.4429715 3.1029511,0 0,-11.7320971 1.4465909,0 c 1.5773561,1.6277553 2.7910214,3.64372 3.6423578,5.6338041 l 3.487074,0 C 1.0118267,9.5360019 -0.51513038,7.4178768 -2.2205275,5.686599 -0.17732008,3.1012605 1.4245546,0.3620004 2.7676229,-2.4045025 M -18.914895,9.7171663 c -2.378293,0 -3.696843,-1.368949 -3.696843,-5.0140311 0,-3.97880601 1.114229,-4.85874736 3.696843,-4.85874736 2.376932,0 3.695482,1.34306836 3.695482,4.98815046 0,3.9815303 -1.108781,4.884628 -3.695482,4.884628 m 0,-12.4826354 c -4.625821,0 -6.719428,2.27340878 -6.719428,7.4686043 0,5.5057628 2.766503,7.5993698 6.719428,7.5993698 4.627184,0 6.718067,-2.274771 6.718067,-7.4699667 0,-5.50576301 -2.763779,-7.5980074 -6.718067,-7.5980074 m -12.274228,11.474653 0,-11.1136864 -3.102951,0 0,12.5098785 c 2.609857,1.422072 5.377722,1.862043 7.186642,1.990084 l 0,-2.5839766 C -28.374945,9.4079609 -29.97682,9.2526771 -31.189123,8.7091839 m -11.346612,1.0079824 c -0.928978,0 -2.402812,-0.025881 -3.616477,-0.256082 -0.129403,-0.6211351 -0.284687,-1.4751958 -0.33781,-3.0511898 l 6.461984,0 c 0,2.1467299 -0.38821,3.3072718 -2.507697,3.3072718 M -46.46278,4.2645266 c 0.103523,-3.69548118 0.824094,-4.42013876 3.098865,-4.42013876 1.785763,0 3.799004,0.59525444 5.353204,1.18914676 l 0.51625,-2.3251701 c -1.654998,-0.7505382 -3.670963,-1.4738336 -6.073775,-1.4738336 -5.172039,0 -5.972976,2.84278259 -5.972976,7.3650818 0,2.4818159 0.183889,4.7293441 0.776419,6.7970703 1.551475,0.595254 3.619201,0.905822 6.229058,0.905822 4.237612,0 5.530282,-2.3524131 5.530282,-6.4619844 l 0,-1.575994 -9.457327,0 z m -8.86752,-6.6690291 0,11.011526 c 0,0.7750567 -0.566649,1.1101428 -1.239546,1.1101428 -1.343068,0 -3.025309,-0.3350861 -4.546817,-1.0079824 l 0,-11.1136864 -3.104314,0 0,20.4429715 3.104314,0 0,-6.742584 c 1.473833,0.540768 3.229629,1.00662 4.98815,1.00662 2.816902,0 3.876646,-1.73264 3.876646,-4.1095715 l 0,-10.597436 -3.078433,0 z"
       inkscape:connector-curvature="0" /></g></g><path
   sodipodi:nodetypes="cc"
   inkscape:connector-curvature="0"
   id="path5070"
   d="m 15.059454,-1.2283851 c 1.8041,-0.200455 15.435079,0 15.435079,0"
   style="fill:none;stroke:#002b36;stroke-width:1px;stroke-linecap:butt;stroke-linejoin:miter;stroke-opacity:1;marker-end:url(#Arrow2Mend7)" /><path
   style="fill:none;stroke:#002b36;stroke-width:1px;stroke-linecap:butt;stroke-linejoin:miter;stroke-opacity:1;marker-end:url(#Arrow2Mend7)"
   d="m 53.492166,-1.2283851 c 1.8041,-0.200455 15.435079,0 15.435079,0"
   id="path3027"
   inkscape:connector-curvature="0"
   sodipodi:nodetypes="cc" /></svg>